# xmcd CD database file
# Copyright (C) 1995-1998 Ti Kan
#
# Track frame offsets:
#	150
#	13178
#	25673
#	37313
#	48953
#	60253
#	73090
#	86213
#	100143
#	112613
#	125618
#	136483
#
# Disc length: 1959 seconds
#
# Revision: 4
# Processed by: cddbd v1.4PL0 Copyright (c) Steve Scherf et al.
# Submitted via: CDex 1.30Release
#
DISCID=9f07a50c
DTITLE=Jimmy Reed - Jimmy Reed - Big Boss Man
DYEAR=1900
DGENRE=Blues
TTITLE0=Big Boss Man
TTITLE1=Honest I Do
TTITLE2=Boogie In The Dark
TTITLE3=I'm Nervous
TTITLE4=Aw Shucks, Hush Your Mouth
TTITLE5=Caress Me Baby
TTITLE6=Oh John
TTITLE7=You Don't Have To Go
TTITLE8=Bright Lights, Big City
TTITLE9=I'll Change My Style
TTITLE10=Down In Virginia
TTITLE11=Take Out Some Insurance
EXTD=ID3G:   0
EXTT0=
EXTT1=
EXTT2=
EXTT3=
EXTT4=
EXTT5=
EXTT6=
EXTT7=
EXTT8=
EXTT9=
EXTT10=
EXTT11=
PLAYORDER=
